<svg width="156" height="24" viewBox="0 0 156 24" fill="none" xmlns="http://www.w3.org/2000/svg">
<path d="M19.4209 13.1341L14.03 22.3669L8.6391 13.1341H19.4209ZM20.8651 12.3088H7.18906L14.03 24L20.8651 12.3088Z" fill="#263238"/>
<path d="M28.7937 1.65038L34.1846 10.8833H23.4027L28.7937 1.65038ZM28.7937 0L21.9527 11.6912H35.6346L28.7937 0Z" fill="#263238"/>
<path d="M0.634613 0L6.37052 10.3409L12.6385 0.259661L0.634613 0Z" fill="#4CAF4F"/>
<path d="M14.0301 0.905762L20.0467 11.1889H8.00189L14.0301 0.905762Z" fill="#4CAF4F"/>
<path d="M21.5961 13.4341L27.6185 24H15.2872L21.409 13.4341H21.5961Z" fill="#4CAF4F"/>
<path d="M22.8999 12.7935L28.7937 23.1978L34.7693 12.7935H22.8999Z" fill="#4CAF4F"/>
<path d="M60.6673 1.66895V22.0326H56.9485L48.0892 9.21582H47.94V22.0326H43.6346V1.66895H47.413L56.2028 14.4758H56.3818V1.66895H60.6673Z" fill="#263238"/>
<path d="M71.1051 22.3309C69.5341 22.3309 68.1818 22.0127 67.0483 21.3763C65.9214 20.7333 65.0531 19.8252 64.4432 18.6519C63.8334 17.472 63.5284 16.0766 63.5284 14.4658C63.5284 12.8948 63.8334 11.516 64.4432 10.3295C65.0531 9.1429 65.9115 8.21819 67.0185 7.55531C68.1321 6.89243 69.438 6.56099 70.9361 6.56099C71.9437 6.56099 72.8817 6.7234 73.75 7.04821C74.625 7.36639 75.3873 7.84698 76.037 8.48997C76.6932 9.13296 77.2036 9.94167 77.5682 10.9161C77.9328 11.8839 78.1151 13.0174 78.1151 14.3167V15.48H65.2188V12.855H74.1279C74.1279 12.2452 73.9953 11.7049 73.7301 11.2343C73.465 10.7636 73.0971 10.3957 72.6264 10.1306C72.1624 9.85881 71.6222 9.72292 71.0057 9.72292C70.3627 9.72292 69.7926 9.87207 69.2955 10.1704C68.805 10.462 68.4205 10.8564 68.1421 11.3536C67.8637 11.8441 67.7211 12.391 67.7145 12.9942V15.49C67.7145 16.2457 67.8537 16.8986 68.1321 17.4488C68.4172 17.999 68.8182 18.4232 69.3353 18.7215C69.8523 19.0198 70.4655 19.1689 71.1747 19.1689C71.6454 19.1689 72.0763 19.1027 72.4674 18.9701C72.8585 18.8375 73.1932 18.6386 73.4716 18.3735C73.75 18.1083 73.9621 17.7835 74.108 17.3991L78.0256 17.6576C77.8267 18.5989 77.4191 19.4208 76.8026 20.1235C76.1927 20.8195 75.4039 21.3631 74.4361 21.7542C73.4749 22.1386 72.3646 22.3309 71.1051 22.3309Z" fill="#263238"/>
<path d="M84.1456 6.75985L86.9496 12.0993L89.8232 6.75985H94.1684L89.7436 14.3962L94.2877 22.0326H89.9624L86.9496 16.7528L83.9865 22.0326H79.6115L84.1456 14.3962L79.7706 6.75985H84.1456Z" fill="#263238"/>
<path d="M103.038 22.3309C101.473 22.3309 100.128 21.9994 99.0007 21.3366C97.8805 20.6671 97.0187 19.739 96.4155 18.5525C95.8189 17.3659 95.5206 16.0004 95.5206 14.4559C95.5206 12.8915 95.8222 11.5193 96.4255 10.3394C97.0353 9.15285 97.9004 8.22813 99.0206 7.56525C100.141 6.89574 101.473 6.56099 103.018 6.56099C104.35 6.56099 105.517 6.80294 106.518 7.28684C107.519 7.77074 108.311 8.4502 108.894 9.3252C109.478 10.2002 109.799 11.2277 109.859 12.4076H105.862C105.749 11.6453 105.451 11.0321 104.967 10.5681C104.489 10.0974 103.863 9.86213 103.087 9.86213C102.431 9.86213 101.858 10.0411 101.367 10.3991C100.883 10.7504 100.505 11.2641 100.234 11.9403C99.9619 12.6164 99.826 13.435 99.826 14.3962C99.826 15.3707 99.9586 16.1992 100.224 16.882C100.496 17.5648 100.877 18.0851 101.367 18.4431C101.858 18.801 102.431 18.98 103.087 18.98C103.571 18.98 104.005 18.8806 104.39 18.6817C104.781 18.4829 105.103 18.1945 105.354 17.8167C105.613 17.4322 105.782 16.9715 105.862 16.4346H109.859C109.792 17.6012 109.474 18.6287 108.904 19.517C108.341 20.3986 107.562 21.088 106.567 21.5851C105.573 22.0823 104.397 22.3309 103.038 22.3309Z" fill="#263238"/>
<path d="M119.531 22.3309C117.96 22.3309 116.608 22.0127 115.474 21.3763C114.347 20.7333 113.479 19.8252 112.869 18.6519C112.259 17.472 111.954 16.0766 111.954 14.4658C111.954 12.8948 112.259 11.516 112.869 10.3295C113.479 9.1429 114.337 8.21819 115.444 7.55531C116.558 6.89243 117.864 6.56099 119.362 6.56099C120.369 6.56099 121.307 6.7234 122.176 7.04821C123.051 7.36639 123.813 7.84698 124.463 8.48997C125.119 9.13296 125.629 9.94167 125.994 10.9161C126.359 11.8839 126.541 13.0174 126.541 14.3167V15.48H113.645V12.855H122.554C122.554 12.2452 122.421 11.7049 122.156 11.2343C121.891 10.7636 121.523 10.3957 121.052 10.1306C120.588 9.85881 120.048 9.72292 119.431 9.72292C118.788 9.72292 118.218 9.87207 117.721 10.1704C117.231 10.462 116.846 10.8564 116.568 11.3536C116.289 11.8441 116.147 12.391 116.14 12.9942V15.49C116.14 16.2457 116.279 16.8986 116.558 17.4488C116.843 17.999 117.244 18.4232 117.761 18.7215C118.278 19.0198 118.891 19.1689 119.601 19.1689C120.071 19.1689 120.502 19.1027 120.893 18.9701C121.284 18.8375 121.619 18.6386 121.897 18.3735C122.176 18.1083 122.388 17.7835 122.534 17.3991L126.451 17.6576C126.253 18.5989 125.845 19.4208 125.228 20.1235C124.619 20.8195 123.83 21.3631 122.862 21.7542C121.901 22.1386 120.79 22.3309 119.531 22.3309Z" fill="#263238"/>
<path d="M133.541 13.203V22.0326H129.305V6.75985H133.342V9.45446H133.521C133.859 8.5662 134.426 7.86355 135.221 7.3465C136.017 6.82283 136.981 6.56099 138.115 6.56099C139.175 6.56099 140.1 6.793 140.889 7.25701C141.678 7.72103 142.291 8.38391 142.728 9.24565C143.166 10.1008 143.385 11.1216 143.385 12.3082V22.0326H139.149V13.0638C139.155 12.1292 138.917 11.4 138.433 10.8763C137.949 10.346 137.283 10.0809 136.434 10.0809C135.864 10.0809 135.36 10.2035 134.923 10.4488C134.492 10.694 134.154 11.052 133.909 11.5226C133.67 11.9867 133.547 12.5468 133.541 13.203Z" fill="#263238"/>
<path d="M154.847 6.75985V9.94167H145.649V6.75985H154.847ZM147.737 3.10076H151.973V17.3394C151.973 17.7305 152.033 18.0354 152.152 18.2542C152.271 18.4663 152.437 18.6154 152.649 18.7016C152.868 18.7878 153.12 18.8309 153.405 18.8309C153.604 18.8309 153.803 18.8143 154.001 18.7812C154.2 18.7414 154.353 18.7116 154.459 18.6917L155.125 21.8437C154.913 21.91 154.615 21.9862 154.23 22.0724C153.846 22.1652 153.378 22.2215 152.828 22.2414C151.807 22.2812 150.912 22.1453 150.143 21.8337C149.381 21.5222 148.788 21.0383 148.364 20.382C147.939 19.7258 147.731 18.8972 147.737 17.8962V3.10076Z" fill="#263238"/>
</svg>
